<svg xmlns="http://www.w3.org/2000/svg" xmlns:xlink="http://www.w3.org/1999/xlink" width="200" height="200" viewBox="0 0 200 200">
  <defs>
    <clipPath id="clip-exoflex-favicon_1">
      <rect width="200" height="200"/>
    </clipPath>
  </defs>
  <g id="exoflex-favicon_1" data-name="exoflex-favicon – 1" clip-path="url(#clip-exoflex-favicon_1)">
    <path id="Union_1" data-name="Union 1" d="M79.846,197.969a99.481,99.481,0,0,1-35.757-15.047,100.286,100.286,0,0,1-36.23-44,99.44,99.44,0,0,1-5.828-18.77,100.994,100.994,0,0,1,0-40.307A99.482,99.482,0,0,1,17.078,44.089a100.286,100.286,0,0,1,44-36.23,99.44,99.44,0,0,1,18.77-5.828,100.994,100.994,0,0,1,40.307,0,99.482,99.482,0,0,1,35.757,15.047,100.286,100.286,0,0,1,36.23,44,99.44,99.44,0,0,1,5.827,18.77,100.994,100.994,0,0,1,0,40.307,99.481,99.481,0,0,1-15.047,35.757,100.286,100.286,0,0,1-44,36.23,99.44,99.44,0,0,1-18.77,5.827,100.994,100.994,0,0,1-40.307,0ZM83.205,18.36A82.871,82.871,0,0,0,53.408,30.9,83.578,83.578,0,0,0,23.215,67.563,82.908,82.908,0,0,0,18.36,83.205a84.151,84.151,0,0,0,0,33.589,82.867,82.867,0,0,0,12.539,29.8,83.579,83.579,0,0,0,36.664,30.192,82.841,82.841,0,0,0,15.642,4.855,84.151,84.151,0,0,0,33.589,0,82.867,82.867,0,0,0,29.8-12.539,83.578,83.578,0,0,0,30.192-36.664,82.849,82.849,0,0,0,4.855-15.643,84.151,84.151,0,0,0,0-33.589,82.871,82.871,0,0,0-12.539-29.8,83.578,83.578,0,0,0-36.664-30.192,82.916,82.916,0,0,0-15.643-4.855,84.151,84.151,0,0,0-33.589,0Zm3.36,146.952a66.28,66.28,0,0,1-23.838-10.031A66.871,66.871,0,0,1,38.572,125.95a66.3,66.3,0,0,1-3.884-12.514,67.309,67.309,0,0,1,0-26.87A66.279,66.279,0,0,1,44.719,62.726,66.871,66.871,0,0,1,74.05,38.572a66.3,66.3,0,0,1,12.515-3.884,67.309,67.309,0,0,1,26.87,0,66.279,66.279,0,0,1,23.838,10.031A66.871,66.871,0,0,1,161.428,74.05a66.3,66.3,0,0,1,3.884,12.515,67.308,67.308,0,0,1,0,26.87,66.28,66.28,0,0,1-10.031,23.838,66.871,66.871,0,0,1-29.331,24.154,66.3,66.3,0,0,1-12.514,3.884,67.308,67.308,0,0,1-26.87,0ZM51.016,110.076a49.725,49.725,0,0,0,7.523,17.879,50.143,50.143,0,0,0,22,18.115,49.77,49.77,0,0,0,9.386,2.913,50.471,50.471,0,0,0,20.153,0,49.725,49.725,0,0,0,17.879-7.523,50.143,50.143,0,0,0,18.115-22,49.77,49.77,0,0,0,2.913-9.386,50.471,50.471,0,0,0,0-20.153,49.725,49.725,0,0,0-7.523-17.879,50.143,50.143,0,0,0-22-18.115,49.77,49.77,0,0,0-9.386-2.913,50.47,50.47,0,0,0-20.153,0,49.725,49.725,0,0,0-17.879,7.523,50.143,50.143,0,0,0-18.115,22,49.77,49.77,0,0,0-2.913,9.386q-.177.867-.324,1.743H91.667a8.333,8.333,0,0,1,0,16.666H50.691Q50.838,109.208,51.016,110.076Z" fill="#32ade3"/>
  </g>
</svg>
